sfk_cyclingleg_states
version=1
nRows=8
nColumns=53
inDegrees=yes

# SIMM Motion File Header:
name sfk_cyclingleg_states
datacolumns 53
datarows 8
otherdata 1
range 0.85458344 0.85591540
endheader
time	/jointset/bb/crank_angle/value	/jointset/bb/crank_angle/speed	/jointset/spindle/pedal_angle_r/value	/jointset/spindle/pedal_angle_r/speed	/jointset/ground_pelvis/pelvis_tilt/value	/jointset/ground_pelvis/pelvis_tilt/speed	/jointset/ground_pelvis/pelvis_list/value	/jointset/ground_pelvis/pelvis_list/speed	/jointset/ground_pelvis/pelvis_rotation/value	/jointset/ground_pelvis/pelvis_rotation/speed	/jointset/ground_pelvis/pelvis_tx/value	/jointset/ground_pelvis/pelvis_tx/speed	/jointset/ground_pelvis/pelvis_ty/value	/jointset/ground_pelvis/pelvis_ty/speed	/jointset/ground_pelvis/pelvis_tz/value	/jointset/ground_pelvis/pelvis_tz/speed	/jointset/hip_r/hip_angle_r/value	/jointset/hip_r/hip_angle_r/speed	/jointset/hip_r/hip_adduction_r/value	/jointset/hip_r/hip_adduction_r/speed	/jointset/hip_r/hip_rotation_r/value	/jointset/hip_r/hip_rotation_r/speed	/jointset/knee_r/knee_angle_r/value	/jointset/knee_r/knee_angle_r/speed	/jointset/knee_r/tib_tx_r/value	/jointset/knee_r/tib_tx_r/speed	/jointset/knee_r/tib_ty_r/value	/jointset/knee_r/tib_ty_r/speed	/jointset/tib_pat_r/pat_angle_r/value	/jointset/tib_pat_r/pat_angle_r/speed	/jointset/tib_pat_r/pat_tx_r/value	/jointset/tib_pat_r/pat_tx_r/speed	/jointset/tib_pat_r/pat_ty_r/value	/jointset/tib_pat_r/pat_ty_r/speed	/jointset/ankle_r/ankle_angle_r/value	/jointset/ankle_r/ankle_angle_r/speed	/jointset/subtalar_r/subtalar_angle_r/value	/jointset/subtalar_r/subtalar_angle_r/speed	/jointset/mtp_r/mtp_angle_r/value	/jointset/mtp_r/mtp_angle_r/speed	/forceset/bifemlh_r/activation	/forceset/bifemlh_r/fiber_length	/forceset/bifemsh_r/activation	/forceset/bifemsh_r/fiber_length	/forceset/glut_max2_r/activation	/forceset/glut_max2_r/fiber_length	/forceset/vas_int_r/activation	/forceset/vas_int_r/fiber_length	/forceset/med_gas_r/activation	/forceset/med_gas_r/fiber_length	/forceset/tib_ant_r/activation	/forceset/tib_ant_r/fiber_length
      0.85458344	   -420.45340271	   -480.13863232	    429.06739355	    565.44558807	      0.00000000	      0.00000000	     -0.00000000	     -0.00000000	     -0.00000000	     -0.00000000	      0.00000000	     -0.00000000	      0.00000000	      0.00000000	      0.00000000	      0.00000000	     78.66125703	   -153.15616954	      4.27893201	      1.80204010	     -1.75934438	     21.43643251	    -92.42098441	    269.52323243	      0.00347668	      0.04119370	     -0.48677596	      0.09350551	     17.57546970	     -1.02325091	      0.03182321	      0.10547924	     -0.02279492	      0.01135911	     22.90531427	    -32.45910525	     -0.00000000	     -0.00000000	      0.00000000	      0.00000000	     -0.21333550	      0.14077308	     -0.21333550	      0.15072977	     -0.21333550	      0.15433752	     -0.21333550	      0.14961097	     -0.21333550	      0.13504547	     -0.21333550	      0.11573653
      0.85463361	   -420.47748896	   -480.13863232	    429.09575890	    565.43209721	      0.00000000	      0.00000000	     -0.00000000	     -0.00000000	     -0.00000000	     -0.00000000	      0.00000000	     -0.00000000	      0.00000000	      0.00000000	      0.00000000	      0.00000000	     78.65357246	   -153.21426721	      4.27902239	      1.80146355	     -1.75826901	     21.43659828	    -92.40746310	    269.54821195	      0.00347874	      0.04117055	     -0.48677127	      0.09351437	     17.57541837	     -1.02284010	      0.03182851	      0.10547531	     -0.02279435	      0.01135234	     22.90368645	    -32.43914927	     -0.00000000	     -0.00000000	      0.00000000	      0.00000000	     -0.21334196	      0.14077136	     -0.21334196	      0.15073459	     -0.21334196	      0.15433430	     -0.21334196	      0.14960366	     -0.21334196	      0.13502074	     -0.21334196	      0.11573797
      0.85476559	   -420.54085795	   -480.13863232	    429.17038263	    565.39663259	      0.00000000	      0.00000000	     -0.00000000	     -0.00000000	     -0.00000000	     -0.00000000	      0.00000000	     -0.00000000	      0.00000000	      0.00000000	      0.00000000	      0.00000000	     78.63334107	   -153.36698065	      4.27926005	      1.79994455	     -1.75543977	     21.43703046	    -92.37188363	    269.61380506	      0.00348417	      0.04110959	     -0.48675893	      0.09353761	     17.57528345	     -1.02175245	      0.03184243	      0.10546493	     -0.02279285	      0.01133451	     22.89940858	    -32.38662815	     -0.00000000	     -0.00000000	      0.00000000	      0.00000000	     -0.21335895	      0.14076681	     -0.21335895	      0.15074730	     -0.21335895	      0.15432583	     -0.21335895	      0.14958442	     -0.21335895	      0.13501194	     -0.21335895	      0.11574177
      0.85511808	   -420.71010269	   -480.13863232	    429.36966343	    565.30211799	      0.00000000	      0.00000000	     -0.00000000	     -0.00000000	     -0.00000000	     -0.00000000	      0.00000000	     -0.00000000	      0.00000000	      0.00000000	      0.00000000	      0.00000000	     78.57920877	   -153.77387313	      4.27989380	      1.79587226	     -1.74788320	     21.43815672	    -92.27681632	    269.78809524	      0.00349863	      0.04094650	     -0.48672594	      0.09359924	     17.57492381	     -1.01879913	      0.03187960	      0.10543679	     -0.02278886	      0.01128669	     22.88801731	    -32.24622479	     -0.00000000	     -0.00000000	      0.00000000	      0.00000000	     -0.21340433	      0.14075464	     -0.21340433	      0.15078131	     -0.21340433	      0.15430313	     -0.21340433	      0.14953297	     -0.21340433	      0.13501442	     -0.21340433	      0.11575189
      0.85525737	   -420.77698435	   -480.13863232	    429.44840546	    565.26484947	      0.00000000	      0.00000000	     -0.00000000	     -0.00000000	     -0.00000000	     -0.00000000	      0.00000000	     -0.00000000	      0.00000000	      0.00000000	      0.00000000	      0.00000000	     78.55777743	   -153.93427789	      4.28014385	      1.79425685	     -1.74489691	     21.43859064	    -92.23923100	    269.85661195	      0.00350433	      0.04088194	     -0.48671290	      0.09362342	     17.57478198	     -1.01761259	      0.03189428	      0.10542551	     -0.02278729	      0.01126772	     22.88352939	    -32.19068841	     -0.00000000	     -0.00000000	      0.00000000	      0.00000000	     -0.21342227	      0.14074982	     -0.21342227	      0.15079478	     -0.21342227	      0.15429414	     -0.21342227	      0.14951262	     -0.21342227	      0.13502052	     -0.21342227	      0.11575588
      0.85551040	   -420.89847191	   -480.13863232	    429.59142362	    565.19727057	      0.00000000	      0.00000000	     -0.00000000	     -0.00000000	     -0.00000000	     -0.00000000	      0.00000000	     -0.00000000	      0.00000000	      0.00000000	      0.00000000	      0.00000000	     78.51879125	   -154.22508119	      4.28059747	      1.79131368	     -1.73947229	     21.43936281	    -92.17093456	    269.98054985	      0.00351466	      0.04076451	     -0.48668921	      0.09366708	     17.57452477	     -1.01542904	      0.03192095	      0.10540479	     -0.02278445	      0.01123315	     22.87539708	    -32.08973404	     -0.00000000	     -0.00000000	      0.00000000	      0.00000000	     -0.21345485	      0.14074104	     -0.21345485	      0.15081929	     -0.21345485	      0.15427777	     -0.21345485	      0.14947563	     -0.21345485	      0.13503854	     -0.21345485	      0.11576311
      0.85586433	   -421.06840961	   -480.13863232	    429.79144983	    565.10299465	      0.00000000	      0.00000000	     -0.00000000	     -0.00000000	     -0.00000000	     -0.00000000	      0.00000000	     -0.00000000	      0.00000000	      0.00000000	      0.00000000	      0.00000000	     78.46413383	   -154.63063658	      4.28123074	      1.78717768	     -1.73188397	     21.44040851	    -92.07534857	    270.15279094	      0.00352906	      0.04059989	     -0.48665605	      0.09372759	     17.57416592	     -1.01231345	      0.03195826	      0.10537530	     -0.02278048	      0.01118455	     22.86406442	    -31.94835725	     -0.00000000	     -0.00000000	      0.00000000	      0.00000000	     -0.21350042	      0.14072873	     -0.21350042	      0.15085366	     -0.21350042	      0.15425478	     -0.21350042	      0.14942382	     -0.21350042	      0.13514558	     -0.21350042	      0.11577318
      0.85591540	   -421.09292694	   -480.13863232	    429.82030534	    565.08941761	      0.00000000	      0.00000000	     -0.00000000	     -0.00000000	     -0.00000000	     -0.00000000	      0.00000000	     -0.00000000	      0.00000000	      0.00000000	      0.00000000	      0.00000000	     78.45623644	   -154.68902938	      4.28132199	      1.78657914	     -1.73078915	     21.44055609	    -92.06155312	    270.17753241	      0.00353113	      0.04057611	     -0.48665126	      0.09373626	     17.57411424	     -1.01185806	      0.03196364	      0.10537100	     -0.02277991	      0.01117752	     22.86243357	    -31.92794508	     -0.00000000	     -0.00000000	      0.00000000	      0.00000000	     -0.21350699	      0.14072695	     -0.21350699	      0.15085863	     -0.21350699	      0.15425146	     -0.21350699	      0.14941634	     -0.21350699	      0.13512031	     -0.21350699	      0.11577463
